<svg width="181" height="50" viewBox="0 0 181 50" fill="none" xmlns="http://www.w3.org/2000/svg">
<path d="M21.0557 3.43164C23.4964 2.02262 26.5036 2.02262 28.9443 3.43164L41.7061 10.7998C44.1468 12.209 45.6503 14.8135 45.6504 17.6318V32.3682C45.6503 35.1865 44.1468 37.791 41.7061 39.2002L28.9443 46.5684C26.5036 47.9774 23.4964 47.9774 21.0557 46.5684L8.29395 39.2002C5.85316 37.791 4.34967 35.1865 4.34961 32.3682V17.6318C4.34967 14.8135 5.85316 12.209 8.29395 10.7998L21.0557 3.43164Z" fill="#013841" stroke="#03BE6A" stroke-width="2"/>
<path d="M14.8615 24.4374V29.4228C14.8615 34.4082 16.8769 36.4236 21.8623 36.4236H27.8555C32.8409 36.4236 34.8562 34.4082 34.8562 29.4228V24.4374" fill="#013841"/>
<path d="M14.8615 24.4374V29.4228C14.8615 34.4082 16.8769 36.4236 21.8623 36.4236H27.8555C32.8409 36.4236 34.8562 34.4082 34.8562 29.4228V24.4374" stroke="white" stroke-width="2" stroke-linecap="round" stroke-linejoin="round"/>
<path d="M24.8853 25.286C26.9007 25.286 28.4388 23.6419 28.2266 21.6265L27.4841 14.2014H22.2866L21.544 21.6265C21.3319 23.6419 22.8169 25.286 24.8853 25.286Z" fill="#013841" stroke="white" stroke-width="2" stroke-linecap="round" stroke-linejoin="round"/>
<path d="M31.886 25.286C34.1136 25.286 35.7577 23.4827 35.5456 21.2552L35.2273 18.1791C34.803 15.3151 33.7423 14.2014 30.8253 14.2014H27.431L28.2265 21.9977C28.3856 23.801 30.0298 25.286 31.886 25.286Z" fill="#013841" stroke="white" stroke-width="2" stroke-linecap="round" stroke-linejoin="round"/>
<path d="M17.7784 25.286C19.6347 25.286 21.2788 23.801 21.4379 21.9447L21.7031 19.505L22.2335 14.2014H18.8391C15.9221 14.2014 14.8084 15.3151 14.4371 18.1791L14.1189 21.2552C13.9068 23.4827 15.5509 25.286 17.7784 25.286Z" fill="#013841" stroke="white" stroke-width="2" stroke-linecap="round" stroke-linejoin="round"/>
<path d="M24.8851 30.8548C23.0288 30.8548 22.1272 31.7564 22.1272 33.6127V36.3706H27.696V33.6127C27.643 31.7564 26.6883 30.8548 24.8851 30.8548Z" fill="#013841" stroke="white" stroke-width="2" stroke-linecap="round" stroke-linejoin="round"/>
<path d="M55.3333 35V15.4722H59.1111V35H55.3333ZM58.1111 27V23.6389H67.9444V27H58.1111ZM58.1111 18.8056V15.4722H68.4167V18.8056H58.1111ZM76.1534 35.2778C74.9312 35.2778 73.8294 34.9722 72.8479 34.3611C71.8664 33.75 71.0979 32.9167 70.5423 31.8611C69.9868 30.8056 69.709 29.6204 69.709 28.3056C69.709 26.9722 69.9868 25.7778 70.5423 24.7222C71.0979 23.6667 71.8664 22.8333 72.8479 22.2222C73.8294 21.6111 74.9312 21.3056 76.1534 21.3056C77.1164 21.3056 77.9775 21.5 78.7368 21.8889C79.496 22.2778 80.0979 22.8241 80.5423 23.5278C81.0053 24.213 81.2553 24.9907 81.2923 25.8611V30.6944C81.2553 31.5833 81.0053 32.3704 80.5423 33.0556C80.0979 33.7407 79.496 34.287 78.7368 34.6944C77.9775 35.0833 77.1164 35.2778 76.1534 35.2778ZM76.8201 31.9167C77.8386 31.9167 78.6627 31.5833 79.2923 30.9167C79.9219 30.2315 80.2368 29.3519 80.2368 28.2778C80.2368 27.5741 80.0886 26.9537 79.7923 26.4167C79.5145 25.8611 79.1164 25.4352 78.5979 25.1389C78.0979 24.8241 77.5053 24.6667 76.8201 24.6667C76.1534 24.6667 75.5608 24.8241 75.0423 25.1389C74.5423 25.4352 74.1442 25.8611 73.8479 26.4167C73.5701 26.9537 73.4312 27.5741 73.4312 28.2778C73.4312 29 73.5701 29.6389 73.8479 30.1944C74.1442 30.7315 74.5423 31.1574 75.0423 31.4722C75.5608 31.7685 76.1534 31.9167 76.8201 31.9167ZM80.0423 35V31.3889L80.6256 28.1111L80.0423 24.8889V21.5833H83.6534V35H80.0423ZM86.8726 35V21.5833H90.5115V35H86.8726ZM90.5115 27.5833L89.0948 26.6389C89.2615 24.9907 89.743 23.6944 90.5393 22.75C91.3356 21.787 92.4837 21.3056 93.9837 21.3056C94.6319 21.3056 95.2152 21.4167 95.7337 21.6389C96.2522 21.8426 96.7245 22.1852 97.1504 22.6667L94.8726 25.2778C94.6689 25.0556 94.4189 24.8889 94.1226 24.7778C93.8448 24.6667 93.5208 24.6111 93.1504 24.6111C92.3726 24.6111 91.7337 24.8611 91.2337 25.3611C90.7522 25.8426 90.5115 26.5833 90.5115 27.5833ZM98.4286 35V21.5833H102.095V35H98.4286ZM100.262 19.4167C99.6693 19.4167 99.1786 19.2222 98.7897 18.8333C98.4008 18.4259 98.2064 17.9259 98.2064 17.3333C98.2064 16.7593 98.4008 16.2685 98.7897 15.8611C99.1786 15.4537 99.6693 15.25 100.262 15.25C100.873 15.25 101.364 15.4537 101.734 15.8611C102.123 16.2685 102.317 16.7593 102.317 17.3333C102.317 17.9259 102.123 18.4259 101.734 18.8333C101.364 19.2222 100.873 19.4167 100.262 19.4167ZM111.624 35.2778C110.272 35.2778 109.05 34.9722 107.958 34.3611C106.884 33.7315 106.022 32.8889 105.374 31.8333C104.745 30.7593 104.43 29.5648 104.43 28.25C104.43 26.9352 104.745 25.7593 105.374 24.7222C106.004 23.6667 106.865 22.8333 107.958 22.2222C109.05 21.5926 110.263 21.2778 111.597 21.2778C112.967 21.2778 114.189 21.5926 115.263 22.2222C116.356 22.8333 117.217 23.6667 117.847 24.7222C118.476 25.7593 118.791 26.9352 118.791 28.25C118.791 29.5648 118.476 30.7593 117.847 31.8333C117.217 32.8889 116.356 33.7315 115.263 34.3611C114.189 34.9722 112.976 35.2778 111.624 35.2778ZM111.597 31.8889C112.282 31.8889 112.884 31.7407 113.402 31.4444C113.939 31.1296 114.347 30.7037 114.624 30.1667C114.921 29.6111 115.069 28.9815 115.069 28.2778C115.069 27.5741 114.921 26.9537 114.624 26.4167C114.328 25.8796 113.921 25.463 113.402 25.1667C112.884 24.8519 112.282 24.6944 111.597 24.6944C110.93 24.6944 110.337 24.8519 109.819 25.1667C109.3 25.463 108.893 25.8796 108.597 26.4167C108.3 26.9537 108.152 27.5741 108.152 28.2778C108.152 28.9815 108.3 29.6111 108.597 30.1667C108.893 30.7037 109.3 31.1296 109.819 31.4444C110.337 31.7407 110.93 31.8889 111.597 31.8889ZM124.419 35L119.391 21.5833H123.058L126.335 31.3333L125.224 31.3611L128.585 21.5833H131.224L134.585 31.3611L133.474 31.3333L136.752 21.5833H140.419L135.419 35H132.78L129.391 25.7222H130.419L127.03 35H124.419ZM147.497 35.2778C146.275 35.2778 145.173 34.9722 144.191 34.3611C143.21 33.75 142.441 32.9167 141.886 31.8611C141.33 30.8056 141.052 29.6204 141.052 28.3056C141.052 26.9722 141.33 25.7778 141.886 24.7222C142.441 23.6667 143.21 22.8333 144.191 22.2222C145.173 21.6111 146.275 21.3056 147.497 21.3056C148.46 21.3056 149.321 21.5 150.08 21.8889C150.839 22.2778 151.441 22.8241 151.886 23.5278C152.349 24.213 152.599 24.9907 152.636 25.8611V30.6944C152.599 31.5833 152.349 32.3704 151.886 33.0556C151.441 33.7407 150.839 34.287 150.08 34.6944C149.321 35.0833 148.46 35.2778 147.497 35.2778ZM148.163 31.9167C149.182 31.9167 150.006 31.5833 150.636 30.9167C151.265 30.2315 151.58 29.3519 151.58 28.2778C151.58 27.5741 151.432 26.9537 151.136 26.4167C150.858 25.8611 150.46 25.4352 149.941 25.1389C149.441 24.8241 148.849 24.6667 148.163 24.6667C147.497 24.6667 146.904 24.8241 146.386 25.1389C145.886 25.4352 145.487 25.8611 145.191 26.4167C144.913 26.9537 144.775 27.5741 144.775 28.2778C144.775 29 144.913 29.6389 145.191 30.1944C145.487 30.7315 145.886 31.1574 146.386 31.4722C146.904 31.7685 147.497 31.9167 148.163 31.9167ZM151.386 35V31.3889L151.969 28.1111L151.386 24.8889V21.5833H154.997V35H151.386ZM158.216 35V14.9167H161.855V35H158.216ZM170.69 35.2778C169.468 35.2778 168.366 34.9722 167.385 34.3611C166.403 33.75 165.635 32.9167 165.079 31.8611C164.523 30.8056 164.246 29.6204 164.246 28.3056C164.246 26.9722 164.523 25.7778 165.079 24.7222C165.635 23.6667 166.403 22.8333 167.385 22.2222C168.366 21.6111 169.468 21.3056 170.69 21.3056C171.653 21.3056 172.514 21.5 173.273 21.8889C174.033 22.2778 174.635 22.8241 175.079 23.5278C175.542 24.213 175.792 24.9907 175.829 25.8611V30.6944C175.792 31.5833 175.542 32.3704 175.079 33.0556C174.635 33.7407 174.033 34.287 173.273 34.6944C172.514 35.0833 171.653 35.2778 170.69 35.2778ZM171.357 31.9167C172.375 31.9167 173.199 31.5833 173.829 30.9167C174.459 30.2315 174.773 29.3519 174.773 28.2778C174.773 27.5741 174.625 26.9537 174.329 26.4167C174.051 25.8611 173.653 25.4352 173.135 25.1389C172.635 24.8241 172.042 24.6667 171.357 24.6667C170.69 24.6667 170.098 24.8241 169.579 25.1389C169.079 25.4352 168.681 25.8611 168.385 26.4167C168.107 26.9537 167.968 27.5741 167.968 28.2778C167.968 29 168.107 29.6389 168.385 30.1944C168.681 30.7315 169.079 31.1574 169.579 31.4722C170.098 31.7685 170.69 31.9167 171.357 31.9167ZM174.579 35V31.3889L175.162 28.1111L174.579 24.8889V21.5833H178.19V35H174.579Z" fill="#013841"/>
</svg>
