<svg width="50" height="50" viewBox="0 0 50 50" fill="none" xmlns="http://www.w3.org/2000/svg">
<path d="M21.0557 3.43164C23.4964 2.02262 26.5036 2.02262 28.9443 3.43164L41.7061 10.7998C44.1468 12.209 45.6503 14.8135 45.6504 17.6318V32.3682C45.6503 35.1865 44.1468 37.791 41.7061 39.2002L28.9443 46.5684C26.5036 47.9774 23.4964 47.9774 21.0557 46.5684L8.29395 39.2002C5.85316 37.791 4.34967 35.1865 4.34961 32.3682V17.6318C4.34967 14.8135 5.85316 12.209 8.29395 10.7998L21.0557 3.43164Z" fill="#013841" stroke="#03BE6A" stroke-width="2"/>
<path d="M14.8615 24.4374V29.4228C14.8615 34.4082 16.8769 36.4236 21.8623 36.4236H27.8555C32.8409 36.4236 34.8562 34.4082 34.8562 29.4228V24.4374" fill="#013841"/>
<path d="M14.8615 24.4374V29.4228C14.8615 34.4082 16.8769 36.4236 21.8623 36.4236H27.8555C32.8409 36.4236 34.8562 34.4082 34.8562 29.4228V24.4374" stroke="white" stroke-width="2" stroke-linecap="round" stroke-linejoin="round"/>
<path d="M24.8853 25.286C26.9007 25.286 28.4388 23.6419 28.2266 21.6265L27.4841 14.2014H22.2866L21.544 21.6265C21.3319 23.6419 22.8169 25.286 24.8853 25.286Z" fill="#013841" stroke="white" stroke-width="2" stroke-linecap="round" stroke-linejoin="round"/>
<path d="M31.886 25.286C34.1136 25.286 35.7577 23.4827 35.5456 21.2552L35.2273 18.1791C34.803 15.3151 33.7423 14.2014 30.8253 14.2014H27.431L28.2265 21.9977C28.3856 23.801 30.0298 25.286 31.886 25.286Z" fill="#013841" stroke="white" stroke-width="2" stroke-linecap="round" stroke-linejoin="round"/>
<path d="M17.7784 25.286C19.6347 25.286 21.2788 23.801 21.4379 21.9447L21.7031 19.505L22.2335 14.2014H18.8391C15.9221 14.2014 14.8084 15.3151 14.4371 18.1791L14.1189 21.2552C13.9068 23.4827 15.5509 25.286 17.7784 25.286Z" fill="#013841" stroke="white" stroke-width="2" stroke-linecap="round" stroke-linejoin="round"/>
<path d="M24.8851 30.8548C23.0288 30.8548 22.1272 31.7564 22.1272 33.6127V36.3706H27.696V33.6127C27.643 31.7564 26.6883 30.8548 24.8851 30.8548Z" fill="#013841" stroke="white" stroke-width="2" stroke-linecap="round" stroke-linejoin="round"/>
</svg>
